<svg xmlns="http://www.w3.org/2000/svg" width="112" height="24" viewBox="0 0 112 24">
  <metadata><?xpacket begin="﻿" id="W5M0MpCehiHzreSzNTczkc9d"?>
<x:xmpmeta xmlns:x="adobe:ns:meta/" x:xmptk="Adobe XMP Core 5.6-c138 79.159824, 2016/09/14-01:09:01        ">
   <rdf:RDF xmlns:rdf="http://www.w3.org/1999/02/22-rdf-syntax-ns#">
      <rdf:Description rdf:about=""/>
   </rdf:RDF>
</x:xmpmeta>
                                                                                                    
                                                                                                    
                                                                                                    
                                                                                                    
                                                                                                    
                                                                                                    
                                                                                                    
                                                                                                    
                                                                                                    
                                                                                                    
                                                                                                    
                                                                                                    
                                                                                                    
                                                                                                    
                                                                                                    
                                                                                                    
                                                                                                    
                                                                                                    
                                                                                                    
                                                                                                    
                           
<?xpacket end="w"?></metadata>
<defs>
    <style>
      .cls-1 {
        fill: #fff;
      }

      .cls-1, .cls-2 {
        fill-rule: evenodd;
      }

      .cls-2 {
        fill: #ff9500;
      }
    </style>
  </defs>
  <path id="motors_copy" data-name="motors copy" class="cls-1" d="M40.837,23.443A10.669,10.669,0,0,0,51.483,12.93c0-4.739-3.337-8.377-8.878-8.377a10.655,10.655,0,0,0-10.613,10.48C31.993,19.8,35.33,23.443,40.837,23.443ZM41.2,18.17A3.063,3.063,0,0,1,38.067,14.8c0-2.336,1.7-4.972,4.205-4.972a3.053,3.053,0,0,1,3.137,3.338C45.409,15.533,43.707,18.17,41.2,18.17ZM57.29,23.376a11.418,11.418,0,0,0,3.738-.633l1.4-5.273a7.2,7.2,0,0,1-2.4.5c-1,0-1.435-.4-1.435-1.134a5.524,5.524,0,0,1,.167-1.1l1.535-5.674H64.5l1.368-5.106h-4.2L62.9,0.381H56.556L55.321,4.953H53.185L51.817,10.06h2.136l-1.8,6.675a8.987,8.987,0,0,0-.334,2.369C51.817,21.774,53.619,23.376,57.29,23.376Zm15.051,0.067A10.669,10.669,0,0,0,82.987,12.93c0-4.739-3.337-8.377-8.877-8.377A10.655,10.655,0,0,0,63.5,15.033C63.5,19.8,66.835,23.443,72.341,23.443Zm0.367-5.273A3.063,3.063,0,0,1,69.571,14.8c0-2.336,1.7-4.972,4.205-4.972a3.052,3.052,0,0,1,3.137,3.338C76.913,15.533,75.211,18.17,72.708,18.17Zm8.577,4.839h6.341l1.469-5.44c1.135-4.305,3.371-6.241,6.842-6.241H96.47l1.8-6.675c-2.937-.2-5.039,1.368-6.775,3.938l0.968-3.638H86.124Zm20.725,0.434c5.206,0,7.809-3,7.809-6.474,0-3-2.436-4.239-5.039-5.273-1.869-.734-2.5-1.1-2.5-1.7,0-.634.534-1.035,1.569-1.035a9.1,9.1,0,0,1,5.106,1.936l3.037-3.8a12.868,12.868,0,0,0-7.81-2.537c-4.972,0-7.876,2.8-7.876,6.408,0,2.87,2.2,4.138,5.073,5.273,1.769,0.7,2.47,1.068,2.47,1.7,0,0.668-.534,1.1-1.6,1.1A9.642,9.642,0,0,1,96.236,16.6l-3.137,3.7A13.635,13.635,0,0,0,102.01,23.443Z"/>
  <path id="motors_copy_2" data-name="motors copy 2" class="cls-2" d="M31.726,13.2L29.09,23.009H22.782l2.5-9.445a6.089,6.089,0,0,0,.234-1.469,1.7,1.7,0,0,0-1.936-1.9c-1.7,0-2.737,1.2-3.3,3.271l-2.57,9.545H11.368L13.9,13.564a6.089,6.089,0,0,0,.234-1.469,1.719,1.719,0,0,0-1.936-1.9c-4.587,0-.12-0.021-0.12-0.021H3.428l1.4-5.22h6.341l-0.534,2a7.059,7.059,0,0,1,5.039-2.4A4.64,4.64,0,0,1,20.379,7.69,8.566,8.566,0,0,1,26.92,4.553c3.438,0,5.34,2.07,5.34,5.373A13.6,13.6,0,0,1,31.726,13.2ZM8.91,13.428l-2.581,9.58H-0.012l2.568-9.58H8.91Z"/>
</svg>
